# xmcd CD database file
# Copyright (C) 1993-1998 Ti Kan
# 
# Track frame offsets:
#     182
#     13502
#     26717
#     37065
#     49795
#     70992
#     85737
#     97335
#     112762
#     126895
# 
# Disc length: 1911 seconds
# 
# Revision: 1
# Processed by: cddbd v1.4b41PL1 Copyright (c) Steve Scherf et al.
# Submitted via: DiscPlay 4.0.4
# 
DISCID=8207750a
DTITLE=Various Artist - Behind Closed Doors
DYEAR=1900
DGENRE=
TTITLE0=Behind Closed Doors/Charlie Rich
TTITLE1=Sharing The Night Together/Dr. Hook
TTITLE2=Rub It In/Billy Crash Craddock
TTITLE3=I can Tell By The Way You Dance/Vern Gosdin
TTITLE4=Summer (The First Time)/Bobby Goldsboror
TTITLE5=If I Said You Had A Beautiful Body/The Bellamy Brothers
TTITLE6=Help Me Make It Through The Night/Sammi Smith
TTITLE7=It's Now Or Never/John Schneider
TTITLE8=(If Loving You Is Wrong) I don't Want To Be Right/Barbara Mandrell
TTITLE9=Somtimes When We Touch/Tammy Wynette (Duet With Mark Gray)
EXTD=
EXTT0=
EXTT1=
EXTT2=
EXTT3=
EXTT4=
EXTT5=
EXTT6=
EXTT7=
EXTT8=
EXTT9=
PLAYORDER=
